# xmcd CD database file
#
# Track frame offsets:
#	150
#	31006
#	52945
#	79677
#	112289
#	132612
#	161239
#	187190
#
# Disc length: 2888 seconds
#
# Revision: 0
# Processed by: cddbd v1.5.1PL0 Copyright (c) Steve Scherf et al.
# Submitted via: CDex 1.51
#
DISCID=6e0b4608
DTITLE=Tata Dindin and Hans Lüdemann - Piano meets Kora - Afrikan Dialogues (Live at Stadtgarten Köln)
DYEAR=1999
DGENRE=Jazz
TTITLE0=Nanifa (Ebraim Jobareth)
TTITLE1=Ella est la (Hans Lüdemann)
TTITLE2=Duga(trad/Lüdemann/Jobareth)
TTITLE3=For Tata  (Hans Lüdemann)
TTITLE4=Heimkehr  (Hans Lüdemann)
TTITLE5=Ado (Ebraim Jobareth)
TTITLE6=Salam (Ebraim Jobareth)
TTITLE7=Kano (Lüdemann/Jobareth)
EXTD=YEAR: 1999
EXTT0=
EXTT1=
EXTT2=
EXTT3=
EXTT4=
EXTT5=
EXTT6=
EXTT7=
PLAYORDER=
